# xmcd
#
# Track frame offsets: 
#        150
#        17250
#        42987
#        65850
#        82275
#        97500
#        126300
#        146325
#        156825
#        165562
#
# Disc length: 2390 seconds
#
# Revision: 0
# Processed by: cddbd v1.5.2PL0 Copyright (c) Steve Scherf et al.
# Submitted via: ExactAudioCopy v0.95b4
#
DISCID=7c09540a
DTITLE=Dirty River Ramblers - Ramble On
DYEAR=2013
DGENRE=Bluegrass
TTITLE0=Red Bird Stomp
TTITLE1=Copper Coil Datdream
TTITLE2=Take It Easy With My Heart
TTITLE3=Wally The Hound Dog
TTITLE4=Hippy Girl
TTITLE5=Carp Skin Boots
TTITLE6=Eliza Mae
TTITLE7=Lost Weekend
TTITLE8=Armadillo Shuffle
TTITLE9=Equal Parts Pleasure
EXTD=
EXTT0=
EXTT1=
EXTT2=
EXTT3=
EXTT4=
EXTT5=
EXTT6=
EXTT7=
EXTT8=
EXTT9=
PLAYORDER=
